
<svg xmlns="http://www.w3.org/2000/svg" version="1.1" xmlns:xlink="http://www.w3.org/1999/xlink" preserveAspectRatio="none" x="0px" y="0px" width="36px" height="36px" viewBox="0 0 36 36">
<defs>
<linearGradient id="Gradient_1" gradientUnits="userSpaceOnUse" x1="19.7875" y1="9.1875" x2="12.8125" y2="11.712499999999999" spreadMethod="pad">
<stop  offset="0%" stop-color="#D6D6D6"/>

<stop  offset="34.509803921568626%" stop-color="#F2F2F2"/>

<stop  offset="100%" stop-color="#FFFFFF"/>
</linearGradient>

<linearGradient id="Gradient_2" gradientUnits="userSpaceOnUse" x1="27.3375" y1="13.1875" x2="22.4625" y2="19.3125" spreadMethod="pad">
<stop  offset="0%" stop-color="#D6D6D6"/>

<stop  offset="34.509803921568626%" stop-color="#F2F2F2"/>

<stop  offset="100%" stop-color="#FFFFFF"/>
</linearGradient>

<linearGradient id="Gradient_3" gradientUnits="userSpaceOnUse" x1="23.4375" y1="8.1875" x2="13.162500000000001" y2="4.612500000000001" spreadMethod="pad">
<stop  offset="0%" stop-color="#D6D6D6"/>

<stop  offset="34.509803921568626%" stop-color="#F2F2F2"/>

<stop  offset="100%" stop-color="#FFFFFF"/>
</linearGradient>

<g id="icon_users_0_Layer0_0_FILL">
<path fill="#FFFFFF" stroke="none" d="
M 18.35 22.1
Q 16.15 22.1 14.5 23.7 12.95 25.35 12.95 27.65 12.95 29.95 14.55 32.9 16.15 35.8 18.35 35.8
L 18.4 35.8
Q 20.7 35.7 22.3 32.85 23.9 29.95 23.95 27.65 23.9 25.35 22.25 23.7 20.7 22.1 18.4 22.1
L 18.35 22.1
M 9.35 1.6
Q 7.75 0 5.5 0
L 5.45 0
Q 3.2 0 1.6 1.6 0 3.25 0 5.55 0 7.85 1.65 10.8 3.2 13.7 5.45 13.7
L 5.5 13.7
Q 7.75 13.6 9.4 10.75 10.95 7.85 11 5.55 10.95 3.25 9.35 1.6
M 30.55 0
L 30.5 0
Q 28.3 0 26.65 1.6 25.1 3.25 25.1 5.55 25.1 7.85 26.7 10.8 28.3 13.7 30.5 13.7
L 30.55 13.7
Q 32.8 13.6 34.45 10.75 36.05 7.85 36.1 5.55 36.05 3.25 34.4 1.6 32.8 0 30.55 0 Z"/>
</g>

<g id="icon_settings_0_Layer0_0_FILL">
<path fill="#FFFFFF" stroke="none" d="
M 26.15 28.45
L 25.75 27.6 21.8 29.25 22.4 30.55 23.6 33.4
Q 24 34.5 25.2 34.05
L 26.6 33.5
Q 28.05 33.05 27.65 31.85
L 26.15 28.45
M 12.45 28.75
L 11.95 30 10.75 32.9
Q 10.35 34 11.5 34.55
L 12.9 35.15
Q 14.25 35.85 14.75 34.75
L 16.15 31.2 16.45 30.4 12.45 28.75
M 6.15 21.65
L 4.85 22.2 2 23.45
Q 0.9 23.85 1.35 25.05
L 1.9 26.45
Q 2.35 27.9 3.55 27.5
L 7 26 7.8 25.6 6.15 21.65
M 6.65 12.35
L 5.35 11.85 2.5 10.65
Q 1.4 10.25 0.85 11.4
L 0.25 12.8
Q -0.45 14.15 0.65 14.65
L 4.2 16.05 5 16.35 6.65 12.35
M 13.75 6.15
L 13.15 4.75 11.95 2
Q 11.55 0.9 10.35 1.35
L 8.95 1.9
Q 7.5 2.35 7.9 3.55
L 9.4 6.85 9.8 7.8 13.75 6.15
M 28.75 23.05
L 30.1 23.6 32.9 24.75
Q 34 25.15 34.55 24
L 35.15 22.6
Q 35.85 21.25 34.75 20.75
L 31.3 19.4 30.4 19.05 28.75 23.05
M 23.1 6.65
L 23.7 5.3 24.8 2.5
Q 25.2 1.4 24.05 0.85
L 22.65 0.25
Q 21.3 -0.45 20.8 0.65
L 19.45 4.1 19.1 5 23.1 6.65
M 33.5 8.85
Q 33.05 7.4 31.85 7.8
L 28.6 9.3 27.6 9.7 29.25 13.65 30.65 13.05 33.4 11.85
Q 34.5 11.45 34.05 10.25
L 33.5 8.85 Z"/>

<path fill="#FFFFFF" fill-opacity="0.9882352941176471" stroke="none" d="
M 23.7 5.3
L 23.1 6.65 19.1 5 19.45 4.1
Q 18.6 4 17.75 4 15.3 4 13.15 4.75
L 13.75 6.15 9.8 7.8 9.4 6.85
Q 8.7 7.35 8.1 7.95 6.35 9.75 5.35 11.85
L 6.65 12.35 5 16.35 4.2 16.05
Q 4.1 16.8 4.1 17.65 4.1 20.1 4.85 22.2
L 6.15 21.65 7.8 25.6 7 26
Q 7.5 26.6 8.1 27.2 9.85 29 11.95 30
L 12.45 28.75 16.45 30.4 16.15 31.2
Q 16.95 31.3 17.75 31.3 20.2 31.3 22.4 30.55
L 21.8 29.25 25.75 27.6 26.15 28.45
Q 26.8 27.9 27.4 27.3
L 27.45 27.2
Q 29.1 25.55 30.1 23.6
L 28.75 23.05 30.4 19.05 31.3 19.4
Q 31.4 18.55 31.4 17.65 31.4 15.2 30.65 13.05
L 29.25 13.65 27.6 9.7 28.6 9.3
Q 28.05 8.6 27.4 7.95 25.7 6.25 23.7 5.3
M 25.35 9.95
Q 28.6 13.15 28.6 17.65 28.6 22.1 25.35 25.2 22.3 28.45 17.75 28.45 13.3 28.45 10.15 25.2 6.95 22.1 6.95 17.65 6.95 13.2 10.15 10.05
L 10.2 9.95
Q 13.35 6.8 17.75 6.8 22.3 6.8 25.35 9.95 Z"/>
</g>

<g id="icon_search_0_Layer0_0_FILL">
<path fill="#FFFFFF" fill-opacity="0.9882352941176471" stroke="none" d="
M 25 9.5
Q 25 5.6 22.2 2.8 19.4 0 15.5 0 11.6 0 8.8 2.8 6 5.6 6 9.5 6 12.3 7.45 14.55
L 0 22 2.8 24.85 10.25 17.4
Q 12.55 19 15.5 19 19.4 19 22.2 16.25
L 22.25 16.2
Q 25 13.4 25 9.5
M 23.05 9.5
Q 23.05 12.65 20.8 14.8 18.65 17.05 15.5 17.05 12.4 17.05 10.15 14.8 8 12.65 8 9.5 8 6.45 10.15 4.2
L 10.2 4.15
Q 12.45 2 15.5 2 18.65 2 20.8 4.15 23.05 6.4 23.05 9.5 Z"/>
</g>

<g id="icon_photos_0_Layer0_0_FILL">
<path fill="#FFFFFF" stroke="none" d="
M 25.05 1.15
Q 23.9 0 22.25 0
L 13.85 0
Q 12.2 0 11 1.15 9.85 2.35 9.85 4 9.85 4.1 9.85 4.2
L 7 4.2
Q 0 4.2 0 11.1
L 0 24.3
Q 0 31.2 7 31.2
L 29 31.2
Q 36 31.2 36 24.3
L 36 11.1
Q 36 4.2 29 4.2
L 26.25 4.2
Q 26.25 4.1 26.25 4 26.25 2.35 25.05 1.15
M 31.5 10.5
Q 30.9 10.5 30.45 10.05 30.05 9.65 30.05 9.05 30.05 8.45 30.45 8 30.9 7.6 31.5 7.6 32.1 7.6 32.5 8 32.95 8.45 32.95 9.05 32.95 9.65 32.5 10.05 32.1 10.5 31.5 10.5
M 27.1 17.25
Q 27.1 21 24.4 23.65 21.75 26.35 18 26.35 14.25 26.35 11.55 23.65 8.9 21 8.9 17.25 8.9 13.5 11.55 10.8 14.25 8.15 18 8.15 21.75 8.15 24.4 10.8 27.1 13.5 27.1 17.25
M 23.15 22.4
Q 25.35 20.3 25.35 17.25 25.35 14.2 23.15 12.05 21.05 9.9 18 9.9 14.95 9.9 12.8 12.05 10.65 14.2 10.65 17.25 10.65 20.3 12.8 22.4 14.95 24.6 18 24.6 21.05 24.6 23.15 22.4
M 22.45 12.75
Q 24.35 14.65 24.35 17.25 24.35 19.85 22.45 21.7 20.6 23.6 18 23.6 15.4 23.6 13.5 21.7 11.65 19.85 11.65 17.25 11.65 14.65 13.5 12.75 15.4 10.9 18 10.9 20.6 10.9 22.45 12.75 Z"/>
</g>

<g id="icon_pages_0_Layer0_0_FILL">
<path fill="#FFFFFF" fill-opacity="0.8" stroke="none" d="
M 30.15 20.7
L 31.25 19.4 29.9 15.6 21.1 26.25 3.5 20.2 0 24.4 2.85 25.4 21.1 31.6 30.15 20.7 Z"/>

<path fill="#FFFFFF" fill-opacity="0.45098039215686275" stroke="none" d="
M 31.25 23.85
L 30.15 20.7 21.1 31.6 2.85 25.4 0 28.8 21.1 36 31.25 23.85 Z"/>

<path fill="#FFFFFF" fill-opacity="0.9882352941176471" stroke="none" d="
M 26.6 3.75
L 26.75 3.75 15.8 0 0 19.05 3.5 20.2 21.1 26.25 29.9 15.6 31.25 14.05 27.75 4.05 26.6 3.75
M 25.25 5.3
L 20.75 10.7 20.55 10.9 20 11.45 20.9 11.8 28.4 14.35 20.45 23.95 12.35 21.15 3.35 18.1 11.4 8.35 16.45 2.35 25.25 5.3
M 21.8 11.05
L 26.2 5.7 28.95 13.45 21.8 11.05 Z"/>

<path fill="#FFFFFF" stroke="none" d="
M 26.2 5.7
L 21.8 11.05 28.95 13.45 26.2 5.7 Z"/>

<path fill="url(#Gradient_1)" stroke="none" d="
M 3.35 18.1
L 12.35 21.15 20.9 11.8 20 11.45 20.55 10.9 11.4 8.35 3.35 18.1 Z"/>

<path fill="url(#Gradient_2)" stroke="none" d="
M 20.45 23.95
L 28.4 14.35 20.9 11.8 12.35 21.15 20.45 23.95 Z"/>

<path fill="url(#Gradient_3)" stroke="none" d="
M 20.75 10.7
L 25.25 5.3 16.45 2.35 11.4 8.35 20.55 10.9 20.75 10.7 Z"/>
</g>

<g id="icon_options_0_Layer0_0_FILL">
<path fill="#FFFFFF" stroke="none" d="
M 18.2 19.8
L 17.95 19.2 15.2 20.35 15.6 21.3 16.4 23.25
Q 16.75 24 17.55 23.7
L 18.55 23.3
Q 19.55 23 19.25 22.2
L 18.2 19.8
M 8.3 20.9
L 7.45 22.9
Q 7.15 23.65 8 24.05
L 9 24.45
Q 9.9 24.95 10.3 24.15
L 11.25 21.75 11.45 21.15 8.65 20 8.3 20.9
M 4.3 15.1
L 3.4 15.5 1.4 16.3
Q 0.65 16.65 0.95 17.45
L 1.35 18.45
Q 1.65 19.45 2.45 19.15
L 4.9 18.1 5.45 17.85 4.3 15.1
M 4.65 8.6
L 3.75 8.25 1.75 7.4
Q 1 7.1 0.6 7.95
L 0.2 8.95
Q -0.3 9.85 0.5 10.25
L 2.9 11.2 3.5 11.4 4.65 8.6
M 6.2 1.35
Q 5.2 1.65 5.5 2.45
L 6.55 4.8 6.8 5.45 9.55 4.3 9.15 3.35 8.35 1.4
Q 8 0.65 7.2 0.95
L 6.2 1.35
M 16.1 4.65
L 16.5 3.7 17.3 1.75
Q 17.6 1 16.75 0.6
L 15.75 0.2
Q 14.85 -0.3 14.45 0.5
L 13.55 2.9 13.3 3.5 16.1 4.65
M 24.15 14.4
L 21.8 13.5 21.15 13.25 20 16.05 20.95 16.45 22.9 17.25
Q 23.65 17.55 24.05 16.7
L 24.45 15.7
Q 24.95 14.8 24.15 14.4
M 20.35 9.5
L 21.35 9.1 23.25 8.3
Q 24 7.95 23.7 7.15
L 23.3 6.15
Q 23 5.15 22.2 5.45
L 19.9 6.5 19.2 6.75 20.35 9.5 Z"/>

<path fill="#FFFFFF" fill-opacity="0.9882352941176471" stroke="none" d="
M 21.85 12.3
Q 21.85 10.6 21.35 9.1
L 20.35 9.5 19.2 6.75 19.9 6.5
Q 19.5 6 19.05 5.55 17.9 4.4 16.5 3.7
L 16.1 4.65 13.3 3.5 13.55 2.9
Q 12.95 2.8 12.35 2.8 10.65 2.8 9.15 3.35
L 9.55 4.3 6.8 5.45 6.55 4.8
Q 6.05 5.15 5.65 5.55 4.4 6.8 3.75 8.25
L 4.65 8.6 3.5 11.4 2.9 11.2
Q 2.85 11.7 2.85 12.3 2.85 14 3.4 15.5
L 4.3 15.1 5.45 17.85 4.9 18.1
Q 5.25 18.55 5.65 18.95 6.85 20.2 8.3 20.9
L 8.65 20 11.45 21.15 11.25 21.75
Q 11.8 21.8 12.35 21.8 14.1 21.8 15.6 21.3
L 15.2 20.35 17.95 19.2 18.2 19.8
Q 18.65 19.4 19.05 19
L 19.1 18.95
Q 20.25 17.8 20.95 16.45
L 20 16.05 21.15 13.25 21.8 13.5
Q 21.85 12.9 21.85 12.3
M 17.65 6.95
Q 19.9 9.15 19.9 12.3 19.9 15.4 17.65 17.55 15.5 19.8 12.35 19.8 9.25 19.8 7.05 17.55 4.85 15.4 4.85 12.3 4.85 9.2 7.05 7
L 7.1 6.95
Q 9.3 4.75 12.35 4.75 15.5 4.75 17.65 6.95 Z"/>
</g>

<g id="icon_layers_0_Layer0_0_FILL">
<path fill="#FFFFFF" fill-opacity="0.45098039215686275" stroke="none" d="
M 36.05 22.05
L 32.35 20.55 25.4 29.05 3.7 20.45 0 25 25.4 35.05 36.05 22.05 Z"/>

<path fill="#FFFFFF" stroke="none" d="
M 25.4 23.05
L 32.35 14.55 36.05 10.05 10.65 0 0 13 3.7 14.45 25.4 23.05 Z"/>

<path fill="#FFFFFF" fill-opacity="0.8" stroke="none" d="
M 32.35 14.55
L 25.4 23.05 3.7 14.45 0 19 3.7 20.45 25.4 29.05 32.35 20.55 36.05 16.05 32.35 14.55 Z"/>
</g>

<g id="grid_0_Layer0_0_FILL">
<path fill="#FFFFFF" stroke="none" d="
M 20 20
L 20 25 25 25 25 20 20 20
M 10 10
L 10 15 15 15 15 10 10 10
M 15 20
L 10 20 10 25 15 25 15 20
M 5 20
L 0 20 0 25 5 25 5 20
M 5 10
L 0 10 0 15 5 15 5 10
M 0 0
L 0 5 5 5 5 0 0 0
M 15 5
L 15 0 10 0 10 5 15 5
M 25 5
L 25 0 20 0 20 5 25 5
M 25 15
L 25 10 20 10 20 15 25 15 Z"/>
</g>

<g id="icon_desiigns_0_Layer0_0_FILL">
<path fill="#FFFFFF" stroke="none" d="
M 0 35.95
L 3.15 34.95 1.05 32.85 0 35.95
M 10.45 32.55
L 10.5 32.5 10.55 30.85 9 30.85 8.9 29.05 7.1 28.95 7.1 27.2 5.35 27.2 5.4 25.6 3.5 25.5 3.45 25.45 3.45 25.5 3.45 25.55 1.25 32.15 3.8 34.7 10.45 32.55
M 15.65 11.9
L 14.5 10.75
Q 13.15 9.75 13.45 6.55 13.35 4.4 12.05 3.2
L 9.2 0.8
Q 7.4 -0.25 6.6 0.3
L 8.9 3.85
Q 9.55 5.45 7.85 6.8 5.4 8.3 4 7.2 2.6 5.5 1.9 3.6
L 1.45 3.1 0.8 3.95
Q 0.75 7.7 1.5 10.05 2.35 12 4.6 12.35 8.85 12.65 10.55 14.35
L 11.9 15.7 15.65 11.9
M 28.75 14.25
L 21.7 7.2 4.5 24.35 4.55 24.4 6.4 24.6 6.35 26.2 8.1 26.2 8.1 27.95 9.9 28.05 10 29.85 11.55 29.85 11.55 31.4 11.6 31.45 28.75 14.25
M 25.65 21.85
Q 25.5 21.75 25.4 21.65
L 23.95 20.2 20.2 23.95 21.5 25.25
Q 21.55 25.3 21.65 25.35 22.8 26.45 22.5 29.45 22.6 31.55 23.95 32.75
L 26.75 35.15
Q 28.6 36.25 29.4 35.65
L 27.05 32.1
Q 26.4 30.5 28.1 29.15 30.55 27.7 31.95 28.75 33.4 30.45 34.05 32.4
L 34.5 32.85 35.15 32
Q 35.25 28.25 34.45 25.9 33.6 23.95 31.35 23.65 27.4 23.35 25.65 21.85 Z"/>

<path fill="#FFFFFF" fill-opacity="0.9882352941176471" stroke="none" d="
M 3.45 25.55
L 3.45 25.5 3.4 25.45 3.45 25.55
M 30.05 9.55
L 28.6 8.1 26.4 10.35 27.85 11.8 30.05 9.55
M 25.85 9.8
L 28.05 7.55 26.6 6.1 24.4 8.35 25.85 9.8
M 22.45 6.4
L 23.85 7.8 26.05 5.55 24.7 4.2 22.45 6.4
M 31.75 11.25
L 30.6 10.1 28.4 12.35 29.55 13.5 31.75 11.25
M 32.55 10.5
L 35.95 7.05
Q 35.05 1.15 28.85 0
L 25.45 3.4 32.55 10.5 Z"/>
</g>

<g id="icon_cycle_0_Layer0_0_FILL">
<path fill="#FFFFFF" stroke="none" d="
M 0.05 23
L 2.15 20.9 3.1 20 5 18.15 0 18 0.05 23 Z"/>

<path fill="#FFFFFF" fill-opacity="0.9882352941176471" stroke="none" d="
M 10.55 2
Q 14.85 2 17.9 5.05 21 8.1 21 12.5 21 16.9 17.9 19.95 14.85 23.05 10.55 23.05 6.2 23.05 3.1 20
L 2.15 20.9 1.7 21.4
Q 5.4 25 10.55 25 15.65 25 19.3 21.35 23 17.7 23 12.5 23 7.3 19.3 3.65 15.65 0 10.55 0 5.35 0 1.7 3.65
L 3.1 5.05
Q 6.15 2 10.55 2 Z"/>
</g>

<g id="icon_close_0_Layer0_0_FILL">
<path fill="#FFFFFF" fill-opacity="0.9882352941176471" stroke="none" d="
M 1.4 10.65
L 5.3 6.75 9.25 10.7 10.65 9.3 6.75 5.4 10.7 1.4 9.25 0 5.3 3.95 1.4 0.05 0 1.45 3.9 5.35 0 9.25 1.4 10.65 Z"/>
</g>

<g id="icon_apps_0_Layer0_0_FILL">
<path fill="#FFFFFF" stroke="none" d="
M 35.95 7.35
L 35.6 6.95 27.1 0.05 0 0 0 27.4 9.4 35.9 35.95 35.95 35.95 7.35
M 26.3 1.95
L 32.45 6.95 10.35 6.95 4.05 1.95 26.3 1.95
M 1.95 2.85
L 9.35 8.7 9.35 33.25 1.95 26.55 1.95 2.85 Z"/>
</g>

<g id="icon_analytics_0_Layer0_0_FILL">
<path fill="#FFFFFF" stroke="none" d="
M 3 0
L 0 0 0 36 36 36 36 33 3 33 3 0
M 26.9 19.15
L 22.35 14.45 14.6 23.7 9.8 18.6 5 25.35 5 30.95 36 30.95 36 9.95 35.95 9.95 26.9 19.15 Z"/>

<path fill="#FFFFFF" fill-opacity="0.09411764705882353" stroke="none" d="
M 5 30.95
L 5 31 36 31 36 30.95 5 30.95 Z"/>
</g>

<g id="icon_alert_0_Layer0_0_FILL">
<path fill="#FFFFFF" stroke="none" d="
M 25 12.5
Q 25 7.35 21.3 3.7 17.85 0.15 12.85 0 12.7 0 12.45 0
L 12.4 0
Q 7.25 0.05 3.65 3.7 0 7.35 0 12.5 0 17.65 3.65 21.3 7.25 25 12.4 25
L 12.45 25
Q 12.7 25 12.85 25 17.85 24.85 21.35 21.3
L 21.3 21.3
Q 25 17.65 25 12.5
M 12.25 5.4
Q 12.2 5.25 12.2 5.1 12.2 4.85 12.4 4.65 12.55 4.45 12.85 4.45
L 12.9 4.45
Q 13.2 4.45 13.35 4.65 13.55 4.85 13.55 5.1 13.55 5.25 13.5 5.4 17.15 6.1 17.4 10.5
L 17.4 14.65
Q 17.85 15.8 19.35 16.2 20.45 16.7 20.2 17.45
L 14.5 17.45
Q 14.45 18.05 14 18.45 13.55 18.95 12.85 18.95 12.2 18.95 11.7 18.45 11.3 18.05 11.25 17.45
L 5.55 17.45
Q 5.3 16.7 6.4 16.2 7.85 15.8 8.35 14.65
L 8.35 10.5
Q 8.6 6.1 12.25 5.4 Z"/>
</g>

<path id="icon_users_0_Layer0_0_1_STROKES" stroke="#FFFFFF" stroke-width="2" stroke-linejoin="round" stroke-linecap="square" fill="none" d="
M 18.35 14.25
L 18.35 14.4 18.4 14.35 18.35 14.25 13.5 11.1
M 18.35 14.4
L 18.35 18.95
M 22.95 11.1
L 18.4 14.35"/>

<path id="icon_settings_0_Layer0_0_1_STROKES" stroke="#FFFFFF" stroke-opacity="0.9882352941176471" stroke-width="2" stroke-linejoin="round" stroke-linecap="butt" fill="none" d="
M 11.75 11.6
L 11.75 11.55
Q 14.25 9.05 17.75 9.05 21.35 9.05 23.75 11.55 26.3 14.05 26.3 17.65 26.3 21.15 23.75 23.6 21.35 26.15 17.75 26.15 14.2 26.15 11.75 23.6 9.2 21.15 9.2 17.65 9.2 14.1 11.75 11.6 Z"/>

<path id="icon_plus_0_Layer0_0_1_STROKES" stroke="#FFFFFF" stroke-opacity="0.9882352941176471" stroke-width="2" stroke-linejoin="round" stroke-linecap="butt" fill="none" d="
M 0 12.5
L 12.5 12.5 12.5 0
M 25 12.5
L 12.5 12.5 12.5 25"/>
</defs>

<g transform="matrix( 1, 0, 0, 1, 0,0) ">
<g transform="matrix( 1, 0, 0, 1, 0,0) ">
<use xlink:href="#icon_users_0_Layer0_0_FILL"/>

<use xlink:href="#icon_users_0_Layer0_0_1_STROKES"/>
</g>
</g>

<g transform="matrix( 1, 0, 0, 1, 0.3,0.3) ">
<g transform="matrix( 1, 0, 0, 1, 0,0) ">
<use xlink:href="#icon_settings_0_Layer0_0_FILL"/>

<use xlink:href="#icon_settings_0_Layer0_0_1_STROKES"/>
</g>
</g>

<g transform="matrix( 1, 0, 0, 1, 0,0) ">
<g transform="matrix( 1, 0, 0, 1, 0,0) ">
<use xlink:href="#icon_search_0_Layer0_0_FILL"/>
</g>
</g>

<g transform="matrix( 1, 0, 0, 1, 0,0) ">
<g transform="matrix( 1, 0, 0, 1, 0,0) ">
<use xlink:href="#icon_plus_0_Layer0_0_1_STROKES"/>
</g>
</g>

<g transform="matrix( 1, 0, 0, 1, 0,0) ">
<g transform="matrix( 1, 0, 0, 1, 0,0) ">
<use xlink:href="#icon_photos_0_Layer0_0_FILL"/>
</g>
</g>

<g transform="matrix( 1, 0, 0, 1, 0,0) ">
<g transform="matrix( 1, 0, 0, 1, 0,0) ">
<use xlink:href="#icon_pages_0_Layer0_0_FILL"/>
</g>
</g>

<g transform="matrix( 1, 0, 0, 1, 0.2,0.2) ">
<g transform="matrix( 1, 0, 0, 1, 0,0) ">
<use xlink:href="#icon_options_0_Layer0_0_FILL"/>
</g>
</g>

<g transform="matrix( 1, 0, 0, 1, 0,0) ">
<g transform="matrix( 1, 0, 0, 1, 0,0) ">
<use xlink:href="#icon_layers_0_Layer0_0_FILL"/>
</g>
</g>

<g transform="matrix( 1, 0, 0, 1, 0,0) ">
<g transform="matrix( 1, 0, 0, 1, 0,0) ">
<use xlink:href="#grid_0_Layer0_0_FILL"/>
</g>
</g>

<g transform="matrix( 1, 0, 0, 1, 0,0) ">
<g transform="matrix( 1, 0, 0, 1, 0,0) ">
<use xlink:href="#icon_desiigns_0_Layer0_0_FILL"/>
</g>
</g>

<g transform="matrix( 1, 0, 0, 1, 0,0) ">
<g transform="matrix( 1, 0, 0, 1, 0,0) ">
<use xlink:href="#icon_cycle_0_Layer0_0_FILL"/>
</g>
</g>

<g transform="matrix( 1, 0, 0, 1, 0,0) ">
<g transform="matrix( 1, 0, 0, 1, 0,0) ">
<use xlink:href="#icon_close_0_Layer0_0_FILL"/>
</g>
</g>

<g transform="matrix( 1, 0, 0, 1, 0,0) ">
<g transform="matrix( 1, 0, 0, 1, 0,0) ">
<use xlink:href="#icon_apps_0_Layer0_0_FILL"/>
</g>
</g>

<g transform="matrix( 1, 0, 0, 1, 0,0) ">
<g transform="matrix( 1, 0, 0, 1, 0,0) ">
<use xlink:href="#icon_analytics_0_Layer0_0_FILL"/>
</g>
</g>

<g transform="matrix( 1, 0, 0, 1, 0,0) ">
<g transform="matrix( 1, 0, 0, 1, 0,0) ">
<use xlink:href="#icon_alert_0_Layer0_0_FILL"/>
</g>
</g>
</svg>
