
<svg xmlns="http://www.w3.org/2000/svg" version="1.1" xmlns:xlink="http://www.w3.org/1999/xlink" preserveAspectRatio="none" x="0px" y="0px" width="25px" height="25px" viewBox="0 0 25 25">
<defs>
<g id="icon_fonts_0_Layer1_0_FILL">
<path fill="#FFFFFF" fill-opacity="0" stroke="none" d="
M 25 25
L 25 0 0 0 0 25 25 25 Z"/>
</g>

<g id="icon_fonts_0_Layer0_0_FILL">
<path fill="#FFFFFF" stroke="none" d="
M 12.65 2.75
Q 12.4 2.35 11.95 2.3 11.2 2.2 10.5 2.4 9.75 2.6 9.15 3.05 8.4 4.4 7.65 5.7 6.95 6.9 6.3 8 4.65 10.7 3.15 13.25 1.65 15.9 0.35 18.1 0.2 18.5 0.1 18.75 0 19.05 0 19.3 0 19.65 0.3 19.85 0.6 20.05 1.15 20.05 1.7 20.05 2.2 19.95 2.75 19.85 3.25 19.7 3.1 19.1 3.25 18.55 3.4 17.9 3.65 17.4 3.85 16.95 4.1 16.45 4.35 15.95 4.55 15.65 4.7 15.3 4.95 15.1 5.15 14.85 5.6 14.6 7.4 14.6 9.2 14.55 9.45 14.55 9.7 14.5 10.05 14.45 10.3 14.25 10.35 15.15 10.4 16.05 10.5 16.95 10.65 17.85 10.8 19 11.15 19.5 11.5 20 12.1 20.05 12.85 20.15 13.55 19.95 14.3 19.75 14.9 19.35 14.5 19 14.25 18.45 13.95 17.85 13.8 17.05 13.65 16.3 13.5 15.35 13.4 14.45 13.35 13.35 13.3 13.05 13.3 12.25 13.25 11.5 13.2 10.55 13.15 9.6 13.1 8.75 13.05 8 13.05 7.7 13.05 7.25 13 6.8 12.95 6.3 12.95 5.75 12.95 5.2 12.95 4.7 12.95 4.25 12.95 3.85 12.9 3.15 12.65 2.75
M 9.9 5.5
Q 9.95 6.15 10 7.05 10.05 8 10.1 9 10.15 10.05 10.15 11 10.2 11.95 10.2 12.65 10.1 12.65 9.95 12.7 9.8 12.7 9.6 12.7
L 6 12.7
Q 7.1 10.65 8.1 8.75 9.1 6.9 9.9 5.5
M 21.35 11.05
Q 20.95 10.95 20.5 10.95 19.5 10.95 18.65 11.55 17.7 12.1 17 13.1 16.25 14.1 15.85 15.25 15.45 16.4 15.4 17.6 15.4 18.65 15.8 19.25 16.2 19.9 17.1 19.9
L 17.3 19.9
Q 18.1 19.85 19 19.1 19.85 18.3 20.75 16.85 20.75 17.1 20.7 17.45 20.7 17.85 20.7 18.15 20.7 19.05 21.05 19.45 21.45 19.9 22.1 19.9 22.6 19.85 23.1 19.6 23.55 19.3 24 18.85 24.45 18.35 24.7 17.85 25 17.35 25 16.9 25 16.85 25 16.8 24.95 16.75 24.9 16.75 24.8 16.75 24.55 16.95 24.3 17.15 23.95 17.6 23.7 17.8 23.5 17.95 23.3 18.1 23.15 18.15 23.1 18.05 23.05 17.85 23 17.7 23 17.45 23 17.1 23.1 16.45 23.2 15.8 23.35 15.05 23.55 14.3 23.75 13.5 23.95 12.75 24.15 12.2 24.35 11.6 24.55 11.35 24.2 11.15 23.85 11.05 23.5 10.95 23.15 10.95 22.8 10.95 22.55 11.05 22.25 11.15 22.05 11.4 21.75 11.15 21.35 11.05
M 20.35 12.15
Q 20.75 12.15 21.1 12.35 21.45 12.55 21.6 13.05 21.45 13.55 21.15 14.2 20.85 14.8 20.5 15.45 20.15 16.1 19.75 16.7 19.3 17.4 18.9 17.8 18.55 18.15 18.3 18.15 18 18.15 17.9 17.95 17.75 17.75 17.75 17.35 17.75 16.55 17.95 15.65 18.15 14.75 18.6 13.9 18.95 13.15 19.4 12.65 19.85 12.15 20.35 12.15 Z"/>
</g>
</defs>

<g transform="matrix( 1, 0, 0, 1, 0,0) ">
<g transform="matrix( 1, 0, 0, 1, 0,0) ">
<use xlink:href="#icon_fonts_0_Layer1_0_FILL"/>
</g>

<g transform="matrix( 1, 0, 0, 1, 0,0) ">
<use xlink:href="#icon_fonts_0_Layer0_0_FILL"/>
</g>
</g>
</svg>
