
<svg xmlns="http://www.w3.org/2000/svg" version="1.1" xmlns:xlink="http://www.w3.org/1999/xlink" preserveAspectRatio="none" x="0px" y="0px" width="18px" height="18px" viewBox="0 0 18 18">
<defs>
<g id="iconTextOutdent_0_Layer1_0_FILL">
<path fill="#FFFFFF" fill-opacity="0" stroke="none" d="
M 18 0
L 0 0 0 18 18 18 18 0 Z"/>
</g>

<g id="iconTextOutdent_0_Layer0_0_FILL">
<path fill="#FFFFFF" stroke="none" d="
M 8 13
L 8 15 17 15 17 13 8 13
M 6 8
L 1 11.5 6 15 6 8
M 17 5
L 17 3 1 3 1 5 17 5
M 17 10
L 17 8 8 8 8 10 17 10 Z"/>
</g>
</defs>

<g transform="matrix( 1, 0, 0, 1, 0,0) ">
<g transform="matrix( 1, 0, 0, 1, 0,0) ">
<use xlink:href="#iconTextOutdent_0_Layer1_0_FILL"/>
</g>

<g transform="matrix( 1, 0, 0, 1, 0,0) ">
<use xlink:href="#iconTextOutdent_0_Layer0_0_FILL"/>
</g>
</g>
</svg>
