
<svg xmlns="http://www.w3.org/2000/svg" version="1.1" xmlns:xlink="http://www.w3.org/1999/xlink" preserveAspectRatio="none" x="0px" y="0px" width="33px" height="25px" viewBox="0 0 33 25">
<defs>
<g id="iconScreenHd_0_Layer1_0_FILL">
<path fill="#FFFFFF" fill-opacity="0" stroke="none" d="
M 33 0
L 0 0 0 25 33 25 33 0 Z"/>
</g>

<g id="iconScreenHd_0_Layer0_0_FILL">
<path fill="#FFFFFF" stroke="none" d="
M 33 3.95
L 32.75 2.25
Q 32 0 29.05 0
L 3.95 0
Q 1 0 0.25 2.25
L 0 3.95 0 20.9
Q 0 21 0 21.05 0 25 3.95 25
L 29.05 25
Q 33 25 33 21.05 33 21 33 20.9
L 33 3.95
M 27.7 2.7
Q 29.65 2.7 30.2 4.15
L 30.35 5.25 30.35 19.6
Q 30.35 19.7 30.35 19.75 30.25 22.2 27.7 22.2
L 5.3 22.2
Q 2.75 22.2 2.65 19.75 2.65 19.7 2.65 19.6
L 2.65 5.25 2.85 4.15
Q 3.35 2.7 5.3 2.7
L 27.7 2.7
M 28 6.35
Q 28 5 26.65 5
L 6.35 5
Q 5 5 5 6.35
L 5 18.65
Q 5 20 6.35 20
L 26.65 20
Q 28 20 28 18.65
L 28 6.35
M 23.9 7.85
Q 24.35 8.05 24.75 8.35 25.15 8.7 25.45 9.2 25.7 9.65 25.85 10.3 26 10.9 26 11.6 26 13.15 25.4 14.4 24.8 15.6 23.9 16.35 23.2 16.9 22.1 17.1 21.5 17.3 20.2 17.3
L 16.75 17.3 18.75 7.6 21.45 7.6
Q 22.5 7.6 22.8 7.65 23.4 7.7 23.9 7.85
M 10.25 11.35
L 14 11.35 14.75 7.6 16.8 7.6 14.85 16.95 14.8 16.95 14.75 17.3 12.75 17.3 13.65 12.95 9.9 12.95 9 17.3 7 17.3 9 7.6 11.05 7.6 10.25 11.35
M 23.95 11.55
Q 23.95 10.5 23.7 10 23.35 9.5 22.85 9.35 22.5 9.2 21.6 9.2
L 20.45 9.2 19.1 15.7 20.05 15.7
Q 21.2 15.7 21.7 15.6 22.15 15.5 22.6 15.1 23.2 14.5 23.55 13.65 23.95 12.75 23.95 11.55 Z"/>
</g>
</defs>

<g transform="matrix( 1, 0, 0, 1, 0,0) ">
<g transform="matrix( 1, 0, 0, 1, 0,0) ">
<use xlink:href="#iconScreenHd_0_Layer1_0_FILL"/>
</g>

<g transform="matrix( 1, 0, 0, 1, 0,0) ">
<use xlink:href="#iconScreenHd_0_Layer0_0_FILL"/>
</g>
</g>
</svg>
