
<svg xmlns="http://www.w3.org/2000/svg" version="1.1" xmlns:xlink="http://www.w3.org/1999/xlink" preserveAspectRatio="none" x="0px" y="0px" width="25px" height="25px" viewBox="0 0 25 25">
<defs>
<g id="icon_colorscheme_0_Layer2_0_FILL">
<path fill="#FFFFFF" fill-opacity="0" stroke="none" d="
M 0 0
L 0 25 25 25 25 0 0 0 Z"/>
</g>

<g id="icon_colorscheme_0_Layer1_0_FILL">
<path fill="#FFFFFF" stroke="none" d="
M 23.7 16.5
Q 24.5474609375 14.9111328125 22.95 15.3 21.3515625 15.727734375 17 16.05 13.9107421875 15.2412109375 17.3 13.55 20.7423828125 11.9115234375 22.55 11.4 24.3576171875 10.8791015625 24.1 8.85 23.83984375 6.8642578125 20.75 4.45 17.7052734375 2.046875 12.5 2.05 7.3 2.05 3.65 4.95 0 7.9 0 12.05 0 16.2 3.65 19.1 7.3 22.05 12.5 22.05 17.7 22.05 21.35 19.1 22.847265625 17.9103515625 23.7 16.5
M 14.85 10.9
Q 14.2 10.6 14.05 10.05 13.9 9.45 14.3 8.9 14.75 8.3 15.6 8.1 16.4 7.85 17.05 8.2 17.75 8.4 17.9 9 18.05 9.55 17.6 10.2 17.15 10.75 16.35 11 15.5 11.2 14.85 10.9 Z"/>
</g>

<g id="colorscheme_colors_0_Layer0_0_FILL">
<path fill="#CC0033" stroke="none" d="
M 9 14.5
Q 9 15.1 9.55 15.55 10.15 16 11 16 11.85 16 12.4 15.55 13 15.1 13 14.5 13 13.9 12.4 13.45 11.85 13 11 13 10.15 13 9.55 13.45 9 13.9 9 14.5 Z"/>

<path fill="#FF6600" stroke="none" d="
M 5 15
Q 5.85 15 6.4 14.55 7 14.1 7 13.5 7 12.9 6.4 12.45 5.85 12 5 12 4.15 12 3.55 12.45 3 12.9 3 13.5 3 14.1 3.55 14.55 4.15 15 5 15 Z"/>

<path fill="#FFCC00" stroke="none" d="
M 2 8
Q 1.15 8 0.55 8.45 0 8.9 0 9.5 0 10.1 0.55 10.55 1.15 11 2 11 2.85 11 3.4 10.55 4 10.1 4 9.5 4 8.9 3.4 8.45 2.85 8 2 8 Z"/>

<path fill="#669933" stroke="none" d="
M 1.55 5.55
Q 2.15 6 3 6 3.85 6 4.4 5.55 5 5.1 5 4.5 5 3.9 4.4 3.45 3.85 3 3 3 2.15 3 1.55 3.45 1 3.9 1 4.5 1 5.1 1.55 5.55 Z"/>

<path fill="#339999" stroke="none" d="
M 9.4 2.55
Q 10 2.1 10 1.5 10 0.9 9.4 0.45 8.85 0 8 0 7.15 0 6.55 0.45 6 0.9 6 1.5 6 2.1 6.55 2.55 7.15 3 8 3 8.85 3 9.4 2.55 Z"/>
</g>
</defs>

<g transform="matrix( 1, 0, 0, 1, 0,0) ">
<g transform="matrix( 1, 0, 0, 1, 0,0) ">
<use xlink:href="#icon_colorscheme_0_Layer2_0_FILL"/>
</g>

<g transform="matrix( 1, 0, 0, 1, 0,0) ">
<use xlink:href="#icon_colorscheme_0_Layer1_0_FILL"/>
</g>

<g transform="matrix( 1, 0, 0, 1, 3,4.05) ">
<g transform="matrix( 1, 0, 0, 1, 0,0) ">
<use xlink:href="#colorscheme_colors_0_Layer0_0_FILL"/>
</g>
</g>
</g>
</svg>
