
<svg xmlns="http://www.w3.org/2000/svg" version="1.1" xmlns:xlink="http://www.w3.org/1999/xlink" preserveAspectRatio="none" x="0px" y="0px" width="18px" height="18px" viewBox="0 0 18 18">
<defs>
<g id="iconTextStrikeThru_0_Layer1_0_FILL">
<path fill="#FFFFFF" fill-opacity="0" stroke="none" d="
M 0 0
L 0 18 18 18 18 0 0 0 Z"/>
</g>

<g id="iconTextStrikeThru_0_Layer0_0_FILL">
<path fill="#FFFFFF" stroke="none" d="
M 16 10.95
L 16 8.95 11.45 8.95
Q 11.05 8.65 10.6 8.4 10.1 8.1 9.5 7.85 8.55 7.45 7.9 7.05 7.3 6.6 7 6.15 6.7 5.7 6.7 5.05 6.7 4.55 6.95 4.05 7.25 3.6 7.8 3.25 8.4 2.95 9.3 2.95 10.25 2.95 10.95 3.2 11.65 3.4 12 3.7
L 12.55 1.7
Q 12.1 1.45 11.25 1.25 10.45 1 9.35 1 7.8 1 6.7 1.55 5.6 2.1 5 3.05 4.35 4.05 4.35 5.3 4.35 6.35 4.85 7.2 5.25 7.85 5.9 8.4 6.05 8.55 6.2 8.65 6.4 8.8 6.65 8.95
L 3 8.95 3 10.95 10.1 10.95
Q 10.15 10.95 10.15 11 10.8 11.7 10.8 12.65 10.8 13.75 10.05 14.35 9.3 15 7.95 15 7 15 6.1 14.75 5.25 14.5 4.65 14.1
L 4.1 16.05
Q 4.5 16.35 5.1 16.55 5.65 16.75 6.4 16.9 7.1 17 7.8 17 9.55 17 10.7 16.45 11.9 15.8 12.55 14.8 13.15 13.8 13.15 12.45 13.15 11.65 12.9 10.95
L 16 10.95 Z"/>
</g>
</defs>

<g transform="matrix( 1, 0, 0, 1, 0,0) ">
<g transform="matrix( 1, 0, 0, 1, 0,0) ">
<use xlink:href="#iconTextStrikeThru_0_Layer1_0_FILL"/>
</g>

<g transform="matrix( 1, 0, 0, 1, 0,0) ">
<use xlink:href="#iconTextStrikeThru_0_Layer0_0_FILL"/>
</g>
</g>
</svg>
