
<svg xmlns="http://www.w3.org/2000/svg" version="1.1" xmlns:xlink="http://www.w3.org/1999/xlink" preserveAspectRatio="none" x="0px" y="0px" width="120px" height="25px" viewBox="0 0 120 25">
<defs>
<g id="logo_websilk_0_Layer1_0_FILL">
<path fill="#FFFFFF" fill-opacity="0" stroke="none" d="
M 120 25
L 120 0 0 0 0 25 120 25 Z"/>
</g>

<g id="logo_websilk_0_Layer0_0_FILL">
<path fill="#FFFFFF" stroke="none" d="
M 22.4 24
L 25.3 24 32.4 1.25 29.7 1.25 23.8 20.45 17.7 1.25 14.7 1.25 8.55 20.45 2.75 1.25 0 1.25 7.1 24 10 24 16.15 4.95 22.4 24
M 49.15 12.15
Q 48.95 11.6 48.7 11.1 46.9 7.85 43.4 6.8 43.25 6.8 43.15 6.75 40.15 5.95 37.35 7.15 36.95 7.3 36.6 7.5 36.25 7.7 35.9 7.95 34 9.2 33 11.15 32.65 11.8 32.4 12.6 32.35 12.65 32.35 12.75 32.3 12.75 32.3 12.8 31.4 15.8 32.55 18.55 32.75 19.05 33 19.6 33.3 20.1 33.6 20.55 35 22.55 37.25 23.5 37.75 23.7 38.3 23.9
L 38.35 23.9
Q 38.55 23.95 38.7 24 42.05 24.85 45.1 23.2 47.75 21.75 48.9 19.15
L 46.85 18.3
Q 46.4 19.2 45.75 19.9 45.1 20.5 44.3 20.95
L 44 21.1
Q 41.7 22.3 39.2 21.55 38.85 21.45 38.5 21.3 36.95 20.65 35.9 19.3
L 49.15 12.15
M 42.9 9.05
Q 44.85 9.6 46.05 11.05
L 34.8 17.15
Q 34.4 15.9 34.55 14.6 34.65 14 34.8 13.45 35.55 10.95 37.75 9.7
L 38.2 9.45
Q 40.45 8.3 42.9 9.05
M 67.55 8.9
Q 65.3 6.75 62.25 6.45
L 60.6 6.45
Q 57.55 6.75 55.3 8.9 55.25 8.95 55.15 9
L 55.15 0 52.6 0 52.6 24 55.15 24 55.15 21.65
Q 55.3 21.8 55.45 21.95 57.95 24.25 61.45 24.25 64.9 24.25 67.45 21.95 67.6 21.8 67.75 21.65 70.35 19.05 70.35 15.35 70.35 11.65 67.75 9.05 67.65 8.95 67.55 8.9
M 61.9 8.9
Q 64.45 8.95 66.25 10.8 68.2 12.7 68.2 15.4 68.2 18.1 66.25 20 64.4 21.85 61.8 21.95
L 61.5 21.95
Q 58.9 21.85 57.05 20 55.4 18.35 55.15 16.15 55.15 15.8 55.15 15.4 55.15 15.05 55.15 14.65 55.4 12.45 57.05 10.8 58.85 8.95 61.4 8.9 61.55 8.9 61.65 8.9 61.8 8.9 61.9 8.9
M 87.05 11.05
Q 86.75 8.9 85.25 7.55 83.45 6 80.3 6 77 6 75.25 7.35 74.65 7.8 74.25 8.45 73.55 9.5 73.55 11.05 73.55 13.2 75.3 14.45 76.05 14.95 77.15 15.35 77.95 15.65 79.25 15.95
L 81.35 16.4
Q 82.5 16.75 83.2 17.05 84.05 17.4 84.5 17.9 85 18.5 85 19.25 85 20.85 83.3 21.55 82.15 22.1 80.55 22.1 79.5 22.1 78.7 21.9 77.65 21.55 76.95 20.95 75.9 20 75.75 18.5
L 73.1 18.5
Q 73.15 19.65 73.65 20.7 73.95 21.3 74.4 21.9 74.7 22.25 75.1 22.55 76.95 24.15 79.95 24.25 80.25 24.3 80.55 24.3 80.6 24.3 80.65 24.3 83.85 24.25 85.65 22.9 87.55 21.5 87.55 19 87.55 16.8 85.75 15.55 85.05 15 83.95 14.6 83.1 14.35 81.85 14.05
L 79.7 13.55
Q 78.55 13.25 77.9 13 77 12.65 76.6 12.15 76.1 11.6 76.1 10.85 76.1 8.8 78.75 8.45 79.4 8.3 80.2 8.3 82.25 8.3 83.3 9.1 84.25 9.8 84.4 11.05
L 87.05 11.05
M 91.25 0
L 91.25 3 94.05 3 94.05 0 91.25 0
M 100.8 0
L 98.25 0 98.25 24 100.8 24 100.8 0
M 93.95 6
L 91.4 6 91.4 24 93.95 24 93.95 6
M 119.55 6.1
L 115.95 6.1 107.65 14.65 107.65 0 105.1 0 105.1 24 107.65 24 107.65 17.9 108.9 16.7 115.95 24 119.55 24 110.55 15.05 119.55 6.1 Z"/>
</g>
</defs>

<g transform="matrix( 1, 0, 0, 1, 0,0) ">
<g transform="matrix( 1, 0, 0, 1, 0,0) ">
<use xlink:href="#logo_websilk_0_Layer1_0_FILL"/>
</g>

<g transform="matrix( 1, 0, 0, 1, 0,0) ">
<use xlink:href="#logo_websilk_0_Layer0_0_FILL"/>
</g>
</g>
</svg>
