
<svg xmlns="http://www.w3.org/2000/svg" version="1.1" xmlns:xlink="http://www.w3.org/1999/xlink" preserveAspectRatio="none" x="0px" y="0px" width="48px" height="48px" viewBox="0 0 48 48">
<defs>
<g id="component_text_0_Layer1_0_FILL">
<path fill="#FFFFFF" stroke="none" d="
M 46.45 12.45
L 47.8 12.45 46.85 0 0.8 0 0 12.45 1.35 12.45
Q 1.75 9.5 2.4 8.2 3.55 6.15 5.3 5.25 7.15 4.25 10.15 4.25
L 19.5 4.25 19.5 39.7
Q 19.5 44.1 18.5 45.25 17.15 46.75 14.4 46.75
L 12.7 46.75 12.7 48 35.1 48 35.1 46.75 33.4 46.75
Q 30.65 46.75 29.3 45.25 28.3 44.1 28.3 39.7
L 28.3 4.25 37.65 4.25
Q 40.65 4.25 42.5 5.25 44.25 6.15 45.4 8.2 46.05 9.5 46.45 12.45 Z"/>
</g>

<g id="component_text_0_Layer0_0_FILL">
<path fill="#FFFFFF" fill-opacity="0" stroke="none" d="
M 48 48
L 48 0 0 0 0 48 48 48 Z"/>
</g>
</defs>

<g transform="matrix( 1, 0, 0, 1, 0,0) ">
<g transform="matrix( 1, 0, 0, 1, 0,0) ">
<use xlink:href="#component_text_0_Layer1_0_FILL"/>
</g>

<g transform="matrix( 1, 0, 0, 1, 0,0) ">
<use xlink:href="#component_text_0_Layer0_0_FILL"/>
</g>
</g>
</svg>
